<svg width="38" height="38" viewBox="0 0 38 38" fill="none" xmlns="http://www.w3.org/2000/svg">
<path d="M17.5 0.866025C18.4282 0.330127 19.5718 0.330127 20.5 0.866025L33.9545 8.63397C34.8827 9.16987 35.4545 10.1603 35.4545 11.2321V26.7679C35.4545 27.8397 34.8827 28.8301 33.9545 29.366L20.5 37.134C19.5718 37.6699 18.4282 37.6699 17.5 37.134L4.04552 29.366C3.11731 28.8301 2.54552 27.8397 2.54552 26.7679V11.2321C2.54552 10.1603 3.11731 9.16987 4.04552 8.63397L17.5 0.866025Z" fill="#4B87FF"/>
<path d="M28.08 25.6712C28.08 25.9245 28.0366 26.1612 27.95 26.3812C27.8633 26.6012 27.74 26.7945 27.58 26.9612C27.42 27.1278 27.2333 27.2578 27.02 27.3512C26.8066 27.4445 26.5733 27.4912 26.32 27.4912H11.8C11.5466 27.4912 11.3066 27.4445 11.08 27.3512C10.8533 27.2578 10.6533 27.1278 10.48 26.9612C10.3066 26.7945 10.17 26.6012 10.07 26.3812C9.96998 26.1612 9.91998 25.9245 9.91998 25.6712V15.6912C9.91998 15.1845 10.0966 14.7545 10.45 14.4012C10.8033 14.0478 11.2333 13.8712 11.74 13.8712H26.26C26.7666 13.8712 27.1966 14.0478 27.55 14.4012C27.9033 14.7545 28.08 15.1845 28.08 15.6912V18.4112H23.54C23.0333 18.4112 22.6033 18.5845 22.25 18.9312C21.8966 19.2778 21.72 19.7045 21.72 20.2112C21.7333 20.5578 21.8066 20.8645 21.94 21.1312C22.0466 21.3578 22.2233 21.5645 22.47 21.7512C22.7166 21.9378 23.0733 22.0312 23.54 22.0312H28.08V25.6712V25.6712ZM25.36 12.9512H16.28C17 12.5778 17.68 12.2178 18.32 11.8712C18.88 11.5778 19.4333 11.2845 19.98 10.9912C20.5267 10.6978 20.9533 10.4712 21.26 10.3112C21.7266 10.0578 22.1433 9.94118 22.51 9.96118C22.8766 9.98118 23.1866 10.0445 23.44 10.1512C23.7333 10.2978 23.9866 10.4912 24.2 10.7312L25.36 12.9512ZM22.64 20.2112C22.64 19.9578 22.7266 19.7445 22.9 19.5712C23.0733 19.3978 23.2866 19.3112 23.54 19.3112C23.7933 19.3112 24.0066 19.3978 24.18 19.5712C24.3533 19.7445 24.44 19.9578 24.44 20.2112C24.44 20.4645 24.3533 20.6812 24.18 20.8612C24.0066 21.0412 23.7933 21.1312 23.54 21.1312C23.2866 21.1312 23.0733 21.0412 22.9 20.8612C22.7266 20.6812 22.64 20.4645 22.64 20.2112Z" fill="white"/>
</svg>
