<svg width="44" height="44" viewBox="0 0 44 44" fill="none" xmlns="http://www.w3.org/2000/svg">
<g clip-path="url(#clip0_486_23394)">
<path d="M40 0C42.2091 0 44 1.79086 44 4V40C44 42.2091 42.2091 44 40 44H12C9.79086 44 8 42.2091 8 40V36H21C24.3137 36 27 33.3137 27 30V14C27 10.6863 24.3137 8 21 8H8V4C8 1.79086 9.79086 1.61064e-08 12 0H40Z" fill="url(#paint0_linear_486_23394)"/>
<path d="M21 10C23.2091 10 25 11.7909 25 14V30C25 32.2091 23.2091 34 21 34H4C1.79086 34 6.44266e-08 32.2091 0 30V14C2.57706e-07 11.7909 1.79086 10 4 10H21ZM6.8291 15L10.7744 22L6.5 29H9.62305L12.0889 24.0996C12.2531 23.75 12.4177 23.5752 12.418 23.4004C12.5822 23.7499 12.7458 23.9248 12.7461 24.0996L15.2119 29H18.5L14.3906 22L18.3359 15H15.377L13.0752 19.375L12.582 20.4248C12.4178 20.2497 12.4175 19.8998 12.0889 19.375L9.95215 15H6.8291Z" fill="#D9D9D9"/>
<path d="M21 10C23.2091 10 25 11.7909 25 14V30C25 32.2091 23.2091 34 21 34H4C1.79086 34 6.44266e-08 32.2091 0 30V14C2.57706e-07 11.7909 1.79086 10 4 10H21ZM6.8291 15L10.7744 22L6.5 29H9.62305L12.0889 24.0996C12.2531 23.75 12.4177 23.5752 12.418 23.4004C12.5822 23.7499 12.7458 23.9248 12.7461 24.0996L15.2119 29H18.5L14.3906 22L18.3359 15H15.377L13.0752 19.375L12.582 20.4248C12.4178 20.2497 12.4175 19.8998 12.0889 19.375L9.95215 15H6.8291Z" fill="#107C41"/>
</g>
<defs>
<linearGradient id="paint0_linear_486_23394" x1="26" y1="0" x2="26" y2="44" gradientUnits="userSpaceOnUse">
<stop stop-color="#33C481"/>
<stop offset="1" stop-color="#185C37"/>
</linearGradient>
<clipPath id="clip0_486_23394">
<rect width="44" height="44" fill="white"/>
</clipPath>
</defs>
</svg>
