<svg width="16" height="16" viewBox="0 0 16 16" fill="none" xmlns="http://www.w3.org/2000/svg">
<path d="M6.44336 1.51172C6.54967 1.53569 6.64669 1.59444 6.71777 1.67969L8.23535 3.5H13.667C14.3112 3.5002 14.834 4.02277 14.834 4.66699V13.333C14.834 13.9772 14.3112 14.4998 13.667 14.5H2.33398C1.68966 14.5 1.16699 13.9774 1.16699 13.333V2.66699C1.16699 2.02266 1.68965 1.5 2.33398 1.5H6.33398L6.44336 1.51172ZM2.33398 2.5C2.24194 2.5 2.16699 2.57494 2.16699 2.66699V13.333C2.16699 13.4251 2.24193 13.5 2.33398 13.5H13.667C13.7589 13.4998 13.834 13.4249 13.834 13.333V4.66699C13.834 4.57506 13.7589 4.5002 13.667 4.5H8C7.85186 4.4999 7.71113 4.43404 7.61621 4.32031L6.09863 2.5H2.33398ZM8 6.5C8.27614 6.5 8.5 6.72386 8.5 7V8.5H10C10.2761 8.5 10.5 8.72386 10.5 9C10.5 9.27614 10.2761 9.5 10 9.5H8.5V11C8.5 11.2761 8.27614 11.5 8 11.5C7.72386 11.5 7.5 11.2761 7.5 11V9.5H6C5.72386 9.5 5.5 9.27614 5.5 9C5.5 8.72386 5.72386 8.5 6 8.5H7.5V7C7.5 6.72386 7.72386 6.5 8 6.5Z" />
</svg>
