<svg width="20" height="20" viewBox="0 0 20 20" fill="none" xmlns="http://www.w3.org/2000/svg">
<path fill-rule="evenodd" clip-rule="evenodd" d="M7.5 2.5H12.5C13.1904 2.5 13.75 3.05965 13.75 3.75V5C13.75 5.69035 13.1904 6.25 12.5 6.25H10.625H9.375H7.5C6.80965 6.25 6.25 5.69035 6.25 5V3.75C6.25 3.05965 6.80965 2.5 7.5 2.5ZM9.375 7.5H7.5C6.11929 7.5 5 6.38071 5 5V3.75C5 2.36929 6.11929 1.25 7.5 1.25H12.5C13.8807 1.25 15 2.36929 15 3.75V5C15 6.38071 13.8807 7.5 12.5 7.5H10.625V9.375H12.5C14.2259 9.375 15.625 10.7741 15.625 12.5H16.25C17.6308 12.5 18.75 13.6193 18.75 15V16.25C18.75 17.6308 17.6308 18.75 16.25 18.75H13.125C11.7443 18.75 10.625 17.6308 10.625 16.25V15C10.625 13.6193 11.7443 12.5 13.125 12.5H14.375C14.375 11.4645 13.5355 10.625 12.5 10.625H10H7.5C6.46446 10.625 5.625 11.4645 5.625 12.5H6.875C8.25571 12.5 9.375 13.6193 9.375 15V16.25C9.375 17.6308 8.25571 18.75 6.875 18.75H3.75C2.36929 18.75 1.25 17.6308 1.25 16.25V15C1.25 13.6193 2.36929 12.5 3.75 12.5H4.375C4.375 10.7741 5.77411 9.375 7.5 9.375H9.375V7.5ZM3.75 13.75H6.875C7.56535 13.75 8.125 14.3096 8.125 15V16.25C8.125 16.9404 7.56535 17.5 6.875 17.5H3.75C3.05965 17.5 2.5 16.9404 2.5 16.25V15C2.5 14.3096 3.05965 13.75 3.75 13.75ZM16.25 13.75H13.125C12.4347 13.75 11.875 14.3096 11.875 15V16.25C11.875 16.9404 12.4347 17.5 13.125 17.5H16.25C16.9404 17.5 17.5 16.9404 17.5 16.25V15C17.5 14.3096 16.9404 13.75 16.25 13.75Z" fill="currentColor"/>
</svg>
