<svg width="36" height="36" viewBox="0 0 36 36" fill="none" xmlns="http://www.w3.org/2000/svg">
<path fill-rule="evenodd" clip-rule="evenodd" d="M10.0619 11.6853L23.5848 8.06186L24.6401 12.0001H10.1462L10.0619 11.6853ZM7.55801 12.0001L7 9.91756L25.3526 5L27.2283 12.0001H32V17.0001C29.7909 17.0001 28 18.7909 28 21.0001C28 23.2092 29.7909 25.0001 32 25.0001V30.0001H4V25.0001C6.20914 25.0001 8 23.2092 8 21.0001C8 18.7909 6.20914 17.0001 4 17.0001V12.0001H7.55801ZM12 23H24V25H12V23ZM20 17H12V19H20V17Z" />
</svg>
