<svg width="16" height="16" viewBox="0 0 16 16" fill="none" xmlns="http://www.w3.org/2000/svg">
<path fill-rule="evenodd" clip-rule="evenodd" d="M6.99994 0.733246C3.53897 0.733246 0.733276 3.53894 0.733276 6.99991C0.733276 10.4609 3.53897 13.2666 6.99994 13.2666C8.51436 13.2666 9.90332 12.7294 10.9866 11.8351L13.4782 14.3267C13.7125 14.561 14.0924 14.561 14.3267 14.3267C14.561 14.0924 14.561 13.7125 14.3267 13.4781L11.8352 10.9866C12.7294 9.90329 13.2666 8.51433 13.2666 6.99991C13.2666 3.53894 10.4609 0.733246 6.99994 0.733246ZM1.93328 6.99991C1.93328 4.20168 4.20171 1.93325 6.99994 1.93325C9.79817 1.93325 12.0666 4.20168 12.0666 6.99991C12.0666 9.79814 9.79817 12.0666 6.99994 12.0666C4.20171 12.0666 1.93328 9.79814 1.93328 6.99991Z" />
</svg>
