<svg width="16" height="16" viewBox="0 0 16 16" fill="none" xmlns="http://www.w3.org/2000/svg">
<path d="M14 9.5C14.2761 9.5 14.5 9.72386 14.5 10V13C14.5 13.8284 13.8284 14.5 13 14.5H3C2.17158 14.5 1.5 13.8284 1.5 13V10C1.5 9.72386 1.72386 9.5 2 9.5C2.27614 9.5 2.5 9.72386 2.5 10V13C2.5 13.2762 2.72385 13.5 3 13.5H13C13.2762 13.5 13.5 13.2762 13.5 13V10C13.5 9.72386 13.7239 9.5 14 9.5ZM5.33301 5.83301C5.60903 5.83301 5.83281 6.05703 5.83301 6.33301V10.333C5.83301 10.6091 5.60915 10.833 5.33301 10.833C5.05701 10.8328 4.83301 10.609 4.83301 10.333V6.33301C4.83321 6.05714 5.05713 5.83317 5.33301 5.83301ZM8 4.5C8.27614 4.5 8.5 4.72386 8.5 5V10.333C8.5 10.6091 8.27614 10.833 8 10.833C7.72386 10.833 7.5 10.6091 7.5 10.333V5C7.5 4.72386 7.72386 4.5 8 4.5ZM10.667 7.5C10.943 7.50016 11.167 7.72396 11.167 8V10.333C11.167 10.609 10.943 10.8328 10.667 10.833C10.3909 10.833 10.167 10.6091 10.167 10.333V8C10.167 7.72386 10.3909 7.5 10.667 7.5ZM13 1.5C13.8284 1.5 14.5 2.17158 14.5 3V6C14.5 6.27614 14.2761 6.5 14 6.5C13.7239 6.5 13.5 6.27614 13.5 6V3C13.5 2.72385 13.2762 2.5 13 2.5H3C2.72386 2.5 2.5 2.72386 2.5 3V6C2.5 6.27614 2.27614 6.5 2 6.5C1.72386 6.5 1.5 6.27614 1.5 6V3C1.5 2.17157 2.17157 1.5 3 1.5H13Z" fill="#C9CDD4"/>
</svg>
